<?xml version="1.0" encoding="utf-8"?>
<!-- Generator: Adobe Illustrator 14.0.0, SVG Export Plug-In . SVG Version: 6.00 Build 43363)  -->
<!DOCTYPE svg PUBLIC "-//W3C//DTD SVG 1.1//EN" "http://www.w3.org/Graphics/SVG/1.1/DTD/svg11.dtd">
<svg version="1.1" id="Layer_1" xmlns="http://www.w3.org/2000/svg" xmlns:xlink="http://www.w3.org/1999/xlink" x="0px" y="0px"
	 width="201.6px" height="86.449px" viewBox="0 26.168 201.6 86.449" enable-background="new 0 26.168 201.6 86.449"
	 xml:space="preserve">
<path d="M15.819,94.242H-0.36v-9.925c2.048-0.13,4.133-0.244,6.387-0.382c0.271-3.002,0.394-5.814,0.829-8.58
	c0.394-2.514,0.928-5.035,1.765-7.434c1.387-3.996,4.301-6.395,8.515-7.174c4.236-0.787,8.431-1.895,12.698-2.369
	c2.949-0.321,4.377-1.818,5.829-4.156c3.755-6.059,7.805-11.934,11.763-17.871c0.52-0.779,1.199-1.452,1.769-2.208
	c4.37-5.792,9.875-8.19,17.408-7.961c16.969,0.52,33.965,0.313,50.944,0.069c4.729-0.069,8.151,1.459,10.513,5.333
	c4.34,7.113,8.718,14.218,12.675,21.553c1.612,2.979,3.362,4.118,6.777,4.294c11.973,0.619,23.93,1.536,35.871,2.621
	c8.496,0.779,12.958,5.165,14.548,13.623c0.396,2.108,0.634,4.248,0.97,6.548c0.925,0.252,1.926,0.52,3.057,0.833v12.98
	c-0.833,0.146-1.475,0.352-2.117,0.352c-4.561,0.03-9.13,0.016-14.02,0.016c-0.703-7.793-3.629-14.211-10.024-18.673
	c-4.492-3.133-9.489-4.286-14.929-3.896c-11.102,0.779-18.658,8.732-20.889,22.31H61.756c-0.676-7.648-3.667-14.196-10.292-18.635
	c-4.294-2.873-9.039-4.004-14.196-3.706C26.103,72.444,19.333,79.39,15.819,94.242 M136.19,58.31
	c-3.346-6.135-6.196-11.583-9.275-16.9c-1.535-2.659-3.461-5.104-5.271-7.594c-1.353-1.856-3.14-2.644-5.547-2.583
	c-6.043,0.138-12.103,0.031-18.147,0.061c-0.883,0.008-1.757,0.245-2.499,0.359v25.121C108.899,57.279,122.124,57.775,136.19,58.31
	 M53.516,56.438h34.859v-25.16c-5.402,0-10.506,0.092-15.602-0.038c-2.628-0.077-4.688,0.794-6.472,2.636
	C60.194,40.18,56.37,47.759,53.516,56.438"/>
<path d="M162.755,112.595c-10.337-0.206-18.505-8.542-18.252-18.635c0.26-10.177,8.748-18.229,18.963-17.978
	c9.939,0.236,17.97,8.656,17.81,18.688C181.115,104.687,172.741,112.793,162.755,112.595 M153.098,94.25
	c-0.046,5.577,4.424,10.07,9.933,9.994c5.31-0.069,9.688-4.478,9.733-9.811c0.046-5.531-4.454-10.047-9.955-9.986
	C157.446,84.509,153.144,88.856,153.098,94.25"/>
<path d="M57.206,94.411c-0.034,10.1-8.076,18.153-18.195,18.206c-10.288,0.046-18.471-8.113-18.436-18.39
	c0.034-10.04,8.19-18.223,18.21-18.261C49.024,75.929,57.233,84.149,57.206,94.411 M38.839,84.44
	c-5.283,0.03-9.764,4.477-9.856,9.771c-0.092,5.401,4.561,10.078,9.982,10.039c5.264-0.046,9.757-4.5,9.852-9.764
	C48.917,89.07,44.279,84.409,38.839,84.44"/>
</svg>
