<?xml version="1.0" encoding="utf-8"?>
<!-- Generator: Adobe Illustrator 14.0.0, SVG Export Plug-In . SVG Version: 6.00 Build 43363)  -->
<!DOCTYPE svg PUBLIC "-//W3C//DTD SVG 1.1//EN" "http://www.w3.org/Graphics/SVG/1.1/DTD/svg11.dtd">
<svg version="1.1" id="Layer_1" xmlns="http://www.w3.org/2000/svg" xmlns:xlink="http://www.w3.org/1999/xlink" x="0px" y="0px"
	 width="201.6px" height="138.24px" viewBox="0 0 201.6 138.24" enable-background="new 0 0 201.6 138.24" xml:space="preserve">
<g>
	<path fill="#231F20" d="M125.911,34.983c0.25-0.675,0.531-1.335,0.833-1.979C126.442,33.648,126.161,34.308,125.911,34.983"/>
	<path fill="#231F20" d="M166.359,33.013c0.31,0.644,0.588,1.295,0.833,1.97C166.947,34.308,166.669,33.657,166.359,33.013"/>
	<path fill="#231F20" d="M58.173,73.96h-7.311c-4.77,0-9.258,1.19-13.203,3.281c0.157,0.917,0.237,1.866,0.237,2.839
		c0,6.435-3.547,12.049-8.791,15.009c8.896,3.048,15.306,11.485,15.306,21.394v21.354h36.676v-25.255
		c0-5.582,1.862-10.745,4.999-14.896C83.899,84.247,72.216,73.96,58.173,73.96"/>
	<path fill="#231F20" d="M71.203,54.898c0-9.209-7.472-16.681-16.685-16.681s-16.681,7.472-16.681,16.681
		c0,9.217,7.468,16.682,16.681,16.682S71.203,64.115,71.203,54.898"/>
	<path fill="#231F20" d="M159.837,61.75c0.471-0.426,0.917-0.868,1.343-1.343c1.271-1.399,2.353-2.984,3.186-4.713
		c0.273-0.579,0.526-1.166,0.748-1.777c0.112-0.298,0.217-0.604,0.31-0.917c0.192-0.619,0.357-1.247,0.486-1.89
		s0.233-1.303,0.298-1.962c0.072-0.66,0.104-1.335,0.104-2.019s-0.032-1.359-0.104-2.019c-0.064-0.667-0.169-1.327-0.298-1.971
		c-0.129-0.635-0.294-1.271-0.486-1.89c-0.093-0.306-0.197-0.611-0.31-0.917c-0.222-0.603-0.475-1.198-0.748-1.769
		c-3.193-6.627-9.97-11.196-17.812-11.196c-7.846,0-14.618,4.569-17.812,11.196c-0.281,0.571-0.526,1.166-0.748,1.769
		c-0.112,0.306-0.217,0.611-0.313,0.917c-0.188,0.62-0.354,1.255-0.486,1.89c-0.133,0.644-0.229,1.303-0.302,1.971
		c-0.064,0.659-0.097,1.335-0.097,2.019s0.032,1.359,0.097,2.019c0.072,0.66,0.169,1.319,0.302,1.962s0.298,1.271,0.486,1.89
		c0.097,0.313,0.201,0.619,0.313,0.917c0.222,0.611,0.467,1.198,0.748,1.777c0.833,1.729,1.906,3.314,3.186,4.713
		c0.422,0.475,0.872,0.917,1.343,1.343c3.507,3.185,8.168,5.132,13.283,5.132S156.33,64.936,159.837,61.75"/>
	<path fill="#231F20" d="M173.124,97.792c-4.528-2.518-7.601-7.352-7.601-12.893c0-3.716,1.392-7.118,3.667-9.717
		c-5.079-3.434-11.195-5.444-17.778-5.444h-9.721c-5.887,0-11.408,1.616-16.142,4.423c-0.358,6.258-3.985,11.654-9.193,14.51
		c10.553,2.831,18.346,12.483,18.346,23.912v25.295H158.1V118.02C158.1,108.489,164.441,100.414,173.124,97.792"/>
	<path fill="#231F20" d="M109.942,91.237h-4.09c-11.775,0-21.354,9.579-21.354,21.346v25.448h46.794v-25.448
		C131.292,100.816,121.717,91.237,109.942,91.237"/>
	<path fill="#231F20" d="M116.433,84.584c1.098-0.828,2.079-1.801,2.896-2.896c0.277-0.369,0.531-0.748,0.769-1.142
		c0.72-1.183,1.267-2.47,1.62-3.837c0.117-0.45,0.209-0.917,0.286-1.392c0.104-0.707,0.16-1.432,0.16-2.171
		c0-7.882-6.386-14.269-14.268-14.269c-7.883,0-14.269,6.386-14.269,14.269c0,0.739,0.056,1.464,0.165,2.171
		c0.068,0.475,0.165,0.941,0.286,1.392c0.35,1.367,0.901,2.654,1.617,3.837c0.237,0.394,0.495,0.772,0.768,1.142
		c0.824,1.095,1.798,2.067,2.899,2.896c2.381,1.778,5.333,2.831,8.534,2.831C111.096,87.416,114.056,86.363,116.433,84.584"/>
	<path fill="#231F20" d="M23.098,97.124c-0.792,0.113-1.601,0.178-2.421,0.178s-1.625-0.064-2.417-0.178
		C8.162,97.799,0.151,106.22,0.151,116.483v21.652h41.056v-21.652C41.207,106.22,33.191,97.799,23.098,97.124"/>
	<path fill="#231F20" d="M181.319,99.891h-2.095c-9.993,0-18.125,8.131-18.125,18.129v20.22h38.349v-20.22
		C199.448,108.022,191.317,99.891,181.319,99.891"/>
	<path fill="#231F20" d="M180.274,96.649c6.49,0,11.751-5.26,11.751-11.75c0-6.491-5.261-11.751-11.751-11.751
		c-6.491,0-11.751,5.26-11.751,11.751C168.523,91.389,173.783,96.649,180.274,96.649"/>
	<path fill="#231F20" d="M32.058,87.753c0.491-0.731,0.917-1.512,1.263-2.332c0.173-0.41,0.33-0.837,0.458-1.263
		c0.406-1.287,0.619-2.662,0.619-4.078c0-7.576-6.145-13.721-13.721-13.721S6.955,72.504,6.955,80.081
		c0,1.416,0.217,2.791,0.62,4.078c0.137,0.426,0.29,0.853,0.458,1.263c0.346,0.82,0.776,1.601,1.267,2.332
		c2.465,3.644,6.64,6.049,11.377,6.049S29.588,91.397,32.058,87.753"/>
	<path fill="#231F20" d="M100.407,31.983c-4.014-3.555-7.746-7.198-11.116-11.212c-3.495-4.158-8.626-10.641-5.562-16.335
		c2.939-5.461,11.248-5.702,15-0.997c0.68,0.853,1.118,1.898,1.685,2.887c-1.166-2.042,4.496-5.316,5.896-5.775
		c3.017-0.989,6.607-0.402,8.936,1.834c8.988,8.598-6.566,21.796-12.201,27.186C102.217,30.359,101.356,31.115,100.407,31.983"/>
</g>
</svg>
