<?xml version="1.0" encoding="utf-8"?>
<!-- Generator: Adobe Illustrator 14.0.0, SVG Export Plug-In . SVG Version: 6.00 Build 43363)  -->
<!DOCTYPE svg PUBLIC "-//W3C//DTD SVG 1.1//EN" "http://www.w3.org/Graphics/SVG/1.1/DTD/svg11.dtd">
<svg version="1.1" id="Layer_1" xmlns="http://www.w3.org/2000/svg" xmlns:xlink="http://www.w3.org/1999/xlink" x="0px" y="0px"
	 width="201.6px" height="174.789px" viewBox="0 -17.782 201.6 174.789" enable-background="new 0 -17.782 201.6 174.789"
	 xml:space="preserve">
<path d="M11.172,156.996H85.12v-55.907h34.082v55.918h70.646V78.266H11.172V156.996z M162.853,137.342h-18.449v-19.969h18.449
	V137.342z M144.369,93.113h18.403v20.019h-18.403V93.113z M125.508,93.113h16.567v20.01h-16.567V93.113z M125.447,117.373h16.579
	v20.02h-16.579V117.373z M78.258,137.423H59.904v-19.979h18.354V137.423z M59.843,93.174h18.41v19.999h-18.41V93.174z
	 M40.968,93.113h16.583v20.11H40.968V93.113z M40.922,117.434h16.664v20.01H40.922V117.434z"/>
<path d="M175.16,12.206h-32.21c1.483,1.174,2.651,2.095,3.579,2.834v7.226c-1.327-0.88-2.445-1.619-3.948-2.611v41.921H57.788
	V19.645c-1.306,0.79-2.292,1.397-3.481,2.105v-6.396c1.245-0.992,2.449-1.963,4.018-3.218H26.575
	C17.77,32.681,8.965,53.207,0.079,73.944h201.559C192.732,53.176,183.916,32.62,175.16,12.206"/>
<path d="M59.717,58.985h80.908V18.086c-13.224-10.02-26.604-20.17-40.094-30.393C86.795-2.034,73.182,8.168,59.717,18.249V58.985z
	 M102.745,17.985h28.339v13.42h-28.339V17.985z M102.715,33.653h28.329v20.616h-28.329V33.653z M98.678,54.35H70.399V33.643h28.279
	V54.35z M70.389,17.995h28.344v13.401H70.389V17.995z"/>
<path d="M145.224,16.396C130.215,4.99,115.244-6.396,100.26-17.782C85.348-6.305,70.607,5.041,55.876,16.376v2.288
	C70.915,7.207,85.692-4.038,100.53-15.343c14.928,11.376,29.704,22.63,44.694,34.037V16.396z"/>
<path d="M89.001,157.007h26.78v-50.189h-26.78V157.007z M94.71,129.812c0.992,0,1.787,0.8,1.787,1.781
	c0,0.992-0.795,1.792-1.787,1.792s-1.792-0.8-1.792-1.792C92.918,130.611,93.718,129.812,94.71,129.812"/>
</svg>
