<?xml version="1.0" encoding="utf-8"?>
<!-- Generator: Adobe Illustrator 14.0.0, SVG Export Plug-In . SVG Version: 6.00 Build 43363)  -->
<!DOCTYPE svg PUBLIC "-//W3C//DTD SVG 1.1//EN" "http://www.w3.org/Graphics/SVG/1.1/DTD/svg11.dtd">
<svg version="1.1" id="Layer_1" xmlns="http://www.w3.org/2000/svg" xmlns:xlink="http://www.w3.org/1999/xlink" x="0px" y="0px"
	 width="201.6px" height="215.629px" viewBox="0 -38.212 201.6 215.629" enable-background="new 0 -38.212 201.6 215.629"
	 xml:space="preserve">
<path d="M141.846-38.212c3.756,3.191,3.854,3.417,3.24,8.302c33.302,13.879,53.817,37.459,56.281,75.145h-88.742
	c0.312-1.384,0.544-2.697,0.904-3.996c6.834-24.554,13.618-49.108,20.607-73.619c0.607-2.146,2.549-3.897,3.861-5.832H141.846z"/>
<path d="M25.127,53.169h176.388c-0.875,4.942-1.264,9.771-2.611,14.303c-4.914,16.463-15.652,28.705-30.308,36.767
	c-39.14,21.547-78.265,21.066-116.006-3.389C37.051,90.798,27.054,76.198,25.31,57.024C25.204,55.895,25.204,54.765,25.127,53.169"
	/>
<path d="M67.033,177.266c-16.251,0-28.761-12.523-28.634-28.648c0.127-15.94,13.117-28.832,28.987-28.762
	c15.85,0.057,28.952,13.089,28.868,28.932C96.148,167.016,80.172,179.031,67.033,177.266 M85.05,149.126
	c0.155-9.912-7.681-18.003-17.529-18.087c-9.876-0.1-17.96,7.808-18.023,17.635c-0.071,9.687,7.695,17.692,17.374,17.903
	C76.776,166.789,84.888,158.995,85.05,149.126"/>
<path d="M157.604,177.266c-12.645,1.652-28.797-10.335-28.804-28.521c-0.015-15.842,13.067-28.874,28.909-28.889
	c15.92-0.027,28.712,12.863,28.974,28.805C186.951,165.293,171.829,178.96,157.604,177.266 M157.624,166.577
	c9.842,0.085,17.975-7.935,17.996-17.733c0.014-9.644-7.872-17.649-17.529-17.805c-9.927-0.142-17.939,7.596-18.13,17.536
	C139.784,158.374,147.755,166.507,157.624,166.577"/>
<path d="M36.091,45.361H25.988c-1.645-6.001-2.831-11.889-4.906-17.452c-2.626-7.018-7.547-11.706-15.524-12.566
	c-4.003-0.424-6.001-3.318-5.352-6.905c0.593-3.275,2.866-4.575,7.053-4.052c6.89,0.861,12.743,3.784,17.346,8.994
	C32.61,22.445,35.618,33.289,36.091,45.361"/>
</svg>
