<?xml version="1.0" encoding="utf-8"?>
<!-- Generator: Adobe Illustrator 14.0.0, SVG Export Plug-In . SVG Version: 6.00 Build 43363)  -->
<!DOCTYPE svg PUBLIC "-//W3C//DTD SVG 1.1//EN" "http://www.w3.org/Graphics/SVG/1.1/DTD/svg11.dtd">
<svg version="1.1" id="Layer_1" xmlns="http://www.w3.org/2000/svg" xmlns:xlink="http://www.w3.org/1999/xlink" x="0px" y="0px"
	 width="201.6px" height="193.41px" viewBox="0 -33.026 201.6 193.41" enable-background="new 0 -33.026 201.6 193.41"
	 xml:space="preserve">
<path fill="#64BB89" d="M201.6,52.729v6.442c-0.14,0.503-0.325,1-0.419,1.513c-0.786,4.282-2.249,8.33-5.007,11.706
	c-1.313,1.608-1.341,2.955-0.813,4.789c2.291,7.944,1.419,15.498-3.247,22.447c-0.756,1.121-0.92,2.123-0.637,3.436
	c1.553,7.209,0.2,13.954-3.571,20.216c-1.036,1.721-2.851,3.102-3.445,4.919c-0.603,1.842-0.023,4.041-0.155,6.069
	c-0.539,8.473-3.808,15.552-10.868,20.584c-5.011,3.572-10.769,5.129-16.783,5.343c-7.878,0.277-15.774,0.215-23.659,0.056
	c-3.522-0.072-7.051-0.615-10.545-1.157c-11.87-1.84-23.221-5.602-34.556-9.43c-6.346-2.142-12.624-4.636-19.337-5.334
	c-4.961-0.517-8.166-4.251-8.14-9.516c0.129-25.866,0.06-51.735,0.062-77.604c0-0.806,0-1.612,0.076-2.413
	c0.319-3.446,3.033-6.576,6.45-7.128c2.279-0.369,4.245-1.293,5.783-2.888c3.905-4.039,7.831-8.078,11.479-12.347
	c6.091-7.13,11.978-14.43,17.924-21.674c1.289-1.57,2.645-3.121,3.67-4.857c3.311-5.604,4.333-11.95,5.556-18.204
	c1.214-6.2,2.84-12.193,6.936-17.244c1.939-2.395,4.298-3.706,7.373-3.446c2.666,0.224,5.353,0.451,7.973,0.964
	c10.228,2.001,15.757,7.583,18.108,17.3c2.305,9.519,2.197,19.218-1.355,28.523c-1.692,4.436-4.063,8.615-6.082,12.929
	c-0.685,1.469-1.235,2.996-1.95,4.75c1.05,0,1.69,0,2.327,0c10.894,0,21.79-0.04,32.684,0.014
	c9.304,0.046,16.223,4.436,20.847,12.279C199.869,46.467,200.518,49.726,201.6,52.729"/>
<path fill="#64BB89" d="M0,54.018c0.244-0.531,0.479-1.07,0.738-1.597c1.545-3.113,4.011-4.829,7.529-4.833
	c11.964-0.018,23.925-0.036,35.887,0.008c4.989,0.018,8.251,3.576,8.266,8.906c0.024,9.174,0.004,18.346,0.004,27.517
	c0,17.114,0.008,34.223-0.004,51.335c0,4.55-2.247,7.703-6.194,8.657c-0.974,0.235-2.02,0.241-3.033,0.241
	c-10.78,0.017-21.566-0.153-32.345,0.082c-5.107,0.111-8.9-1.281-10.848-6.264V54.018z M24.185,128.181
	c4.5-0.018,8.072-3.618,8.034-8.101c-0.038-4.298-3.744-8.046-7.988-8.072c-4.366-0.029-8.098,3.702-8.114,8.108
	C16.101,124.608,19.693,128.198,24.185,128.181"/>
</svg>
