<?xml version="1.0" encoding="utf-8"?>
<!-- Generator: Adobe Illustrator 14.0.0, SVG Export Plug-In . SVG Version: 6.00 Build 43363)  -->
<!DOCTYPE svg PUBLIC "-//W3C//DTD SVG 1.1//EN" "http://www.w3.org/Graphics/SVG/1.1/DTD/svg11.dtd">
<svg version="1.1" id="Layer_1" xmlns="http://www.w3.org/2000/svg" xmlns:xlink="http://www.w3.org/1999/xlink" x="0px" y="0px"
	 width="201.6px" height="263px" viewBox="0 -61.898 201.6 263" enable-background="new 0 -61.898 201.6 263" xml:space="preserve">
<path d="M161.662,147.705c7.711,13.33,14.774,25.973,22.299,38.317c2.866,4.721,3.866,9.393,2.931,15.08H14.807
	c-0.274-4.891-0.852-9.501,2.422-14.158c8.11-11.517,15.72-23.377,23.518-35.113c0.75-1.108,1.407-2.297,2.516-4.126
	c-8.251,0-15.877-0.374-23.456,0.095c-10.76,0.672-19.854-6.61-19.776-19.471c0.343-56.945,0.32-113.89-0.032-170.834
	c-0.07-12.455,8.634-19.424,19.526-19.393c54.288,0.188,108.576,0.079,162.872,0.094c12.518,0,19.212,6.657,19.212,19.033
	c0,57.226-0.006,114.452-0.03,171.677c-0.008,12.174-6.681,18.784-18.933,18.799C175.967,147.722,169.279,147.705,161.662,147.705
	 M21.628,31.692h158.465c0.148-1,0.367-1.797,0.367-2.594c0-18.002,0.181-35.989-0.116-53.991
	c-0.157-9.798-7.572-16.549-17.346-16.549c-41.435-0.031-82.871-0.031-124.297,0c-1.383,0-2.805,0.063-4.149,0.344
	c-7.383,1.609-12.994,7.907-13.119,15.845c-0.281,18.143-0.141,36.271-0.148,54.397C21.277,29.832,21.457,30.52,21.628,31.692
	 M27.755,190.789h146.923c-1.625-3.125-3.453-5.688-4.343-8.532c-2.649-8.579-8.197-10.423-16.87-10.282
	c-36.941,0.547-73.908,0.203-110.873,0.313c-1.68,0-4.094,0.703-4.915,1.906C34.271,179.271,31.348,184.679,27.755,190.789
	 M159.443,161.723c-2.422-4.594-4.368-8.579-6.65-12.36c-0.538-0.906-2.218-1.578-3.382-1.578
	c-31.207-0.094-62.43-0.079-93.645-0.031c-1.023,0-2.547,0.202-2.985,0.875c-2.68,4.125-5.102,8.407-7.892,13.095H159.443z
	 M162.841,92.355c-3.766,0-7.523,0.063-11.273-0.016c-3.229-0.079-4.51,1.453-4.485,4.578c0.054,7.235,0.054,14.471-0.008,21.722
	c-0.024,3.142,1.39,4.61,4.531,4.578c7.383-0.031,14.759-0.046,22.136,0.032c2.953,0.016,4.429-1.313,4.429-4.235
	c0.017-7.531,0-15.049,0-22.564c0-2.985-1.522-4.204-4.469-4.126C170.076,92.434,166.458,92.355,162.841,92.355 M53.89,107.842
	c0-3.767-0.039-7.517,0.007-11.268c0.04-2.719-1.086-4.219-3.922-4.219c-7.791,0.015-15.596-0.156-23.378,0.172
	c-1.25,0.063-3.407,2.203-3.461,3.454c-0.328,7.781-0.172,15.579-0.172,23.377c0,2.563,1.313,3.845,3.86,3.845
	c7.657,0.015,15.307,0.015,22.964,0c2.711,0,4.125-1.298,4.109-4.095C53.875,115.358,53.89,111.607,53.89,107.842"/>
</svg>
